<?xml version="1.0" encoding="UTF-8" standalone="no"?>
<!DOCTYPE svg PUBLIC "-//W3C//DTD SVG 1.1//EN"
 "http://www.w3.org/Graphics/SVG/1.1/DTD/svg11.dtd">
<!-- Generated by graphviz version 2.40.1 (20161225.0304)
 -->
<!-- Title: 248 Pages: 1 -->
<svg width="278pt" height="332pt"
 viewBox="0.00 0.00 278.00 332.00" xmlns="http://www.w3.org/2000/svg" xmlns:xlink="http://www.w3.org/1999/xlink">
<g id="graph0" class="graph" transform="scale(1 1) rotate(0) translate(4 328)">
<title>248</title>
<polygon fill="#ffffff" stroke="transparent" points="-4,4 -4,-328 274,-328 274,4 -4,4"/>
<!-- 1 -->
<g id="node1" class="node">
<title>1</title>
<ellipse fill="none" stroke="#000000" cx="171" cy="-306" rx="27" ry="18"/>
<text text-anchor="middle" x="171" y="-302.3" font-family="Times,serif" font-size="14.00" fill="#000000">1</text>
</g>
<!-- 8 -->
<g id="node2" class="node">
<title>8</title>
<ellipse fill="none" stroke="#000000" cx="117" cy="-234" rx="27" ry="18"/>
<text text-anchor="middle" x="117" y="-230.3" font-family="Times,serif" font-size="14.00" fill="#000000">8</text>
</g>
<!-- 1&#45;&gt;8 -->
<g id="edge1" class="edge">
<title>1&#45;&gt;8</title>
<path fill="none" stroke="#000000" d="M158.7466,-289.6621C151.8423,-280.4564 143.0823,-268.7764 135.3715,-258.4953"/>
<polygon fill="#000000" stroke="#000000" points="138.005,-256.1733 129.2049,-250.2733 132.405,-260.3733 138.005,-256.1733"/>
</g>
<!-- 6 -->
<g id="node3" class="node">
<title>6</title>
<ellipse fill="none" stroke="#000000" cx="225" cy="-234" rx="27" ry="18"/>
<text text-anchor="middle" x="225" y="-230.3" font-family="Times,serif" font-size="14.00" fill="#000000">6</text>
</g>
<!-- 1&#45;&gt;6 -->
<g id="edge2" class="edge">
<title>1&#45;&gt;6</title>
<path fill="none" stroke="#000000" d="M183.2534,-289.6621C190.1577,-280.4564 198.9177,-268.7764 206.6285,-258.4953"/>
<polygon fill="#000000" stroke="#000000" points="209.595,-260.3733 212.7951,-250.2733 203.995,-256.1733 209.595,-260.3733"/>
</g>
<!-- 4 -->
<g id="node4" class="node">
<title>4</title>
<ellipse fill="none" stroke="#000000" cx="27" cy="-162" rx="27" ry="18"/>
<text text-anchor="middle" x="27" y="-158.3" font-family="Times,serif" font-size="14.00" fill="#000000">4</text>
</g>
<!-- 8&#45;&gt;4 -->
<g id="edge3" class="edge">
<title>8&#45;&gt;4</title>
<path fill="none" stroke="#000000" d="M99.6471,-220.1177C86.2003,-209.3602 67.3761,-194.3009 52.259,-182.2072"/>
<polygon fill="#000000" stroke="#000000" points="54.2948,-179.3536 44.2996,-175.8397 49.9219,-184.8197 54.2948,-179.3536"/>
</g>
<!-- 9 -->
<g id="node5" class="node">
<title>9</title>
<ellipse fill="none" stroke="#000000" cx="99" cy="-162" rx="27" ry="18"/>
<text text-anchor="middle" x="99" y="-158.3" font-family="Times,serif" font-size="14.00" fill="#000000">9</text>
</g>
<!-- 8&#45;&gt;9 -->
<g id="edge4" class="edge">
<title>8&#45;&gt;9</title>
<path fill="none" stroke="#000000" d="M112.5506,-216.2022C110.5602,-208.2406 108.1668,-198.6671 105.9489,-189.7957"/>
<polygon fill="#000000" stroke="#000000" points="109.2816,-188.6951 103.4606,-179.8425 102.4906,-190.3929 109.2816,-188.6951"/>
</g>
<!-- 2 -->
<g id="node6" class="node">
<title>2</title>
<ellipse fill="none" stroke="#000000" cx="171" cy="-162" rx="27" ry="18"/>
<text text-anchor="middle" x="171" y="-158.3" font-family="Times,serif" font-size="14.00" fill="#000000">2</text>
</g>
<!-- 8&#45;&gt;2 -->
<g id="edge5" class="edge">
<title>8&#45;&gt;2</title>
<path fill="none" stroke="#000000" d="M129.2534,-217.6621C136.1577,-208.4564 144.9177,-196.7764 152.6285,-186.4953"/>
<polygon fill="#000000" stroke="#000000" points="155.595,-188.3733 158.7951,-178.2733 149.995,-184.1733 155.595,-188.3733"/>
</g>
<!-- 10 -->
<g id="node10" class="node">
<title>10</title>
<ellipse fill="none" stroke="#000000" cx="243" cy="-162" rx="27" ry="18"/>
<text text-anchor="middle" x="243" y="-158.3" font-family="Times,serif" font-size="14.00" fill="#000000">10</text>
</g>
<!-- 6&#45;&gt;10 -->
<g id="edge9" class="edge">
<title>6&#45;&gt;10</title>
<path fill="none" stroke="#000000" d="M229.4494,-216.2022C231.4398,-208.2406 233.8332,-198.6671 236.0511,-189.7957"/>
<polygon fill="#000000" stroke="#000000" points="239.5094,-190.3929 238.5394,-179.8425 232.7184,-188.6951 239.5094,-190.3929"/>
</g>
<!-- 3 -->
<g id="node7" class="node">
<title>3</title>
<ellipse fill="none" stroke="#000000" cx="99" cy="-90" rx="27" ry="18"/>
<text text-anchor="middle" x="99" y="-86.3" font-family="Times,serif" font-size="14.00" fill="#000000">3</text>
</g>
<!-- 9&#45;&gt;3 -->
<g id="edge6" class="edge">
<title>9&#45;&gt;3</title>
<path fill="none" stroke="#000000" d="M99,-143.8314C99,-136.131 99,-126.9743 99,-118.4166"/>
<polygon fill="#000000" stroke="#000000" points="102.5001,-118.4132 99,-108.4133 95.5001,-118.4133 102.5001,-118.4132"/>
</g>
<!-- 7 -->
<g id="node8" class="node">
<title>7</title>
<ellipse fill="none" stroke="#000000" cx="171" cy="-90" rx="27" ry="18"/>
<text text-anchor="middle" x="171" y="-86.3" font-family="Times,serif" font-size="14.00" fill="#000000">7</text>
</g>
<!-- 2&#45;&gt;7 -->
<g id="edge7" class="edge">
<title>2&#45;&gt;7</title>
<path fill="none" stroke="#000000" d="M171,-143.8314C171,-136.131 171,-126.9743 171,-118.4166"/>
<polygon fill="#000000" stroke="#000000" points="174.5001,-118.4132 171,-108.4133 167.5001,-118.4133 174.5001,-118.4132"/>
</g>
<!-- 5 -->
<g id="node9" class="node">
<title>5</title>
<ellipse fill="none" stroke="#000000" cx="171" cy="-18" rx="27" ry="18"/>
<text text-anchor="middle" x="171" y="-14.3" font-family="Times,serif" font-size="14.00" fill="#000000">5</text>
</g>
<!-- 7&#45;&gt;5 -->
<g id="edge8" class="edge">
<title>7&#45;&gt;5</title>
<path fill="none" stroke="#000000" d="M171,-71.8314C171,-64.131 171,-54.9743 171,-46.4166"/>
<polygon fill="#000000" stroke="#000000" points="174.5001,-46.4132 171,-36.4133 167.5001,-46.4133 174.5001,-46.4132"/>
</g>
</g>
</svg>
